<svg width="155" height="50" viewBox="0 0 155 50" fill="none" xmlns="http://www.w3.org/2000/svg">
<path d="M68.545 22.674C68.4939 22.1584 68.2744 21.7578 67.8866 21.4723C67.4988 21.1868 66.9726 21.044 66.3078 21.044C65.8561 21.044 65.4747 21.108 65.1636 21.2358C64.8525 21.3594 64.6139 21.532 64.4477 21.7536C64.2858 21.9751 64.2048 22.2266 64.2048 22.5078C64.1963 22.7422 64.2453 22.9467 64.3518 23.1214C64.4626 23.2962 64.6139 23.4474 64.8057 23.5753C64.9974 23.6989 65.219 23.8075 65.4704 23.9013C65.7219 23.9908 65.9903 24.0675 66.2758 24.1314L67.452 24.4126C68.023 24.5405 68.5471 24.7109 69.0244 24.924C69.5017 25.1371 69.915 25.3991 70.2645 25.7102C70.6139 26.0213 70.8845 26.3878 71.0763 26.8097C71.2723 27.2315 71.3724 27.7152 71.3767 28.2607C71.3724 29.0618 71.1679 29.7564 70.7631 30.3445C70.3625 30.9283 69.7829 31.3821 69.0244 31.706C68.2702 32.0256 67.3604 32.1854 66.295 32.1854C65.2382 32.1854 64.3177 32.0234 63.5336 31.6996C62.7538 31.3757 62.1444 30.8963 61.7055 30.2614C61.2709 29.6222 61.0429 28.8317 61.0216 27.8899H63.6998C63.7297 28.3288 63.8554 28.6953 64.077 28.9893C64.3028 29.2791 64.6032 29.4986 64.9782 29.6477C65.3575 29.7926 65.7858 29.8651 66.2631 29.8651C66.7318 29.8651 67.1388 29.7969 67.4839 29.6605C67.8334 29.5241 68.104 29.3345 68.2957 29.0916C68.4875 28.8487 68.5834 28.5696 68.5834 28.2543C68.5834 27.9602 68.496 27.7131 68.3213 27.5128C68.1508 27.3125 67.8994 27.142 67.567 27.0014C67.2389 26.8608 66.8362 26.733 66.3589 26.6179L64.9335 26.2599C63.8298 25.9915 62.9584 25.5717 62.3192 25.0007C61.68 24.4297 61.3625 23.6605 61.3667 22.6932C61.3625 21.9006 61.5734 21.2081 61.9996 20.6158C62.43 20.0234 63.0202 19.5611 63.7702 19.2287C64.5202 18.8963 65.3724 18.7301 66.327 18.7301C67.2986 18.7301 68.1466 18.8963 68.871 19.2287C69.5997 19.5611 70.1665 20.0234 70.5713 20.6158C70.9761 21.2081 71.1849 21.8942 71.1977 22.674H68.545ZM79.4834 27.8196V22.1818H82.2064V32H79.5921V30.2166H79.4898C79.2682 30.7919 78.8996 31.2543 78.384 31.6037C77.8726 31.9531 77.2483 32.1278 76.5111 32.1278C75.8548 32.1278 75.2774 31.9787 74.7789 31.6804C74.2803 31.3821 73.8904 30.9581 73.6091 30.4084C73.3321 29.8587 73.1915 29.2003 73.1872 28.4332V22.1818H75.9102V27.9474C75.9145 28.527 76.07 28.9851 76.3769 29.3217C76.6837 29.6584 77.0949 29.8267 77.6105 29.8267C77.9387 29.8267 78.2455 29.7521 78.531 29.603C78.8165 29.4496 79.0466 29.2237 79.2213 28.9254C79.4003 28.6271 79.4877 28.2585 79.4834 27.8196ZM87.1075 26.3239V32H84.3845V22.1818H86.9797V23.9141H87.0947C87.3121 23.343 87.6764 22.8913 88.1878 22.5589C88.6991 22.2223 89.3192 22.054 90.0479 22.054C90.7297 22.054 91.3241 22.2031 91.8312 22.5014C92.3383 22.7997 92.7325 23.2259 93.0138 23.7798C93.295 24.3295 93.4356 24.9858 93.4356 25.7486V32H90.7126V26.2344C90.7169 25.6335 90.5635 25.1648 90.2524 24.8281C89.9413 24.4872 89.5131 24.3168 88.9676 24.3168C88.6011 24.3168 88.2773 24.3956 87.996 24.5533C87.719 24.7109 87.5017 24.9411 87.344 25.2436C87.1906 25.5419 87.1118 25.902 87.1075 26.3239ZM103.751 24.9815L101.258 25.1349C101.215 24.9219 101.124 24.7301 100.983 24.5597C100.842 24.3849 100.657 24.2464 100.427 24.1442C100.201 24.0376 99.9305 23.9844 99.6151 23.9844C99.1933 23.9844 98.8374 24.0739 98.5477 24.2528C98.2579 24.4276 98.113 24.6619 98.113 24.956C98.113 25.1903 98.2068 25.3885 98.3943 25.5504C98.5818 25.7124 98.9035 25.8423 99.3595 25.9403L101.136 26.2983C102.091 26.4943 102.803 26.8097 103.271 27.2443C103.74 27.679 103.975 28.25 103.975 28.9574C103.975 29.6009 103.785 30.1655 103.406 30.6513C103.031 31.1371 102.515 31.5163 101.859 31.7891C101.207 32.0575 100.455 32.1918 99.6024 32.1918C98.3026 32.1918 97.2671 31.9212 96.4958 31.38C95.7288 30.8345 95.2792 30.093 95.1471 29.1555L97.8254 29.0149C97.9063 29.4112 98.1024 29.7138 98.4134 29.9226C98.7245 30.1271 99.123 30.2294 99.6088 30.2294C100.086 30.2294 100.47 30.1378 100.759 29.9545C101.053 29.767 101.203 29.5263 101.207 29.2322C101.203 28.9851 101.098 28.7827 100.894 28.625C100.689 28.4631 100.374 28.3395 99.9475 28.2543L98.2472 27.9155C97.2884 27.7237 96.5747 27.3913 96.1059 26.9183C95.6414 26.4453 95.4092 25.8423 95.4092 25.1094C95.4092 24.4787 95.5796 23.9354 95.9205 23.4794C96.2657 23.0234 96.7494 22.6719 97.3715 22.4247C97.998 22.1776 98.7309 22.054 99.5704 22.054C100.81 22.054 101.786 22.3161 102.498 22.8402C103.214 23.3643 103.631 24.0781 103.751 24.9815ZM108.412 26.3239V32H105.689V18.9091H108.335V23.9141H108.451C108.672 23.3345 109.03 22.8807 109.524 22.5526C110.019 22.2202 110.639 22.054 111.384 22.054C112.066 22.054 112.661 22.2031 113.168 22.5014C113.679 22.7955 114.076 23.2195 114.357 23.7734C114.642 24.3232 114.783 24.9815 114.779 25.7486V32H112.056V26.2344C112.06 25.6293 111.907 25.1584 111.595 24.8217C111.289 24.4851 110.858 24.3168 110.304 24.3168C109.934 24.3168 109.605 24.3956 109.32 24.5533C109.039 24.7109 108.817 24.9411 108.655 25.2436C108.497 25.5419 108.416 25.902 108.412 26.3239ZM116.922 32V22.1818H119.645V32H116.922ZM118.29 20.9162C117.885 20.9162 117.537 20.782 117.248 20.5135C116.962 20.2408 116.819 19.9148 116.819 19.5355C116.819 19.1605 116.962 18.8388 117.248 18.5703C117.537 18.2976 117.885 18.1612 118.29 18.1612C118.694 18.1612 119.04 18.2976 119.325 18.5703C119.615 18.8388 119.76 19.1605 119.76 19.5355C119.76 19.9148 119.615 20.2408 119.325 20.5135C119.04 20.782 118.694 20.9162 118.29 20.9162ZM124.549 26.3239V32H121.826V22.1818H124.421V23.9141H124.536C124.753 23.343 125.118 22.8913 125.629 22.5589C126.141 22.2223 126.761 22.054 127.489 22.054C128.171 22.054 128.766 22.2031 129.273 22.5014C129.78 22.7997 130.174 23.2259 130.455 23.7798C130.736 24.3295 130.877 24.9858 130.877 25.7486V32H128.154V26.2344C128.158 25.6335 128.005 25.1648 127.694 24.8281C127.383 24.4872 126.954 24.3168 126.409 24.3168C126.043 24.3168 125.719 24.3956 125.437 24.5533C125.16 24.7109 124.943 24.9411 124.785 25.2436C124.632 25.5419 124.553 25.902 124.549 26.3239ZM137.498 32.1918C136.488 32.1918 135.618 31.9872 134.89 31.5781C134.165 31.1648 133.607 30.581 133.215 29.8267C132.823 29.0682 132.627 28.1712 132.627 27.1357C132.627 26.1257 132.823 25.2393 133.215 24.4766C133.607 23.7138 134.159 23.1193 134.87 22.6932C135.586 22.267 136.426 22.054 137.389 22.054C138.037 22.054 138.64 22.1584 139.198 22.3672C139.76 22.5717 140.25 22.8807 140.668 23.294C141.09 23.7074 141.418 24.2273 141.652 24.8537C141.887 25.4759 142.004 26.2045 142.004 27.0398V27.7876H133.714V26.1001H139.441C139.441 25.7081 139.356 25.3608 139.185 25.0582C139.015 24.7557 138.778 24.5192 138.476 24.3487C138.177 24.174 137.83 24.0866 137.434 24.0866C137.02 24.0866 136.654 24.1825 136.334 24.3743C136.019 24.5618 135.772 24.8153 135.593 25.1349C135.414 25.4503 135.322 25.8018 135.318 26.1896V27.794C135.318 28.2798 135.407 28.6996 135.586 29.0533C135.77 29.407 136.027 29.6797 136.36 29.8714C136.692 30.0632 137.086 30.1591 137.542 30.1591C137.845 30.1591 138.122 30.1165 138.373 30.0312C138.625 29.946 138.84 29.8182 139.019 29.6477C139.198 29.4773 139.334 29.2685 139.428 29.0213L141.946 29.1875C141.819 29.7926 141.557 30.321 141.16 30.7727C140.768 31.2202 140.261 31.5696 139.639 31.821C139.021 32.0682 138.307 32.1918 137.498 32.1918Z" fill="#0C111F"/>
<g clip-path="url(#clip0_305_11)">
<path d="M50 25C50 11.1929 38.8071 0 25 0C11.1929 0 0 11.1929 0 25C0 38.8071 11.1929 50 25 50C38.8071 50 50 38.8071 50 25Z" fill="#0C111F" fill-opacity="0.08"/>
<path d="M27.3419 22.674C27.2907 22.1584 27.0713 21.7578 26.6835 21.4723C26.2957 21.1868 25.7694 21.044 25.1047 21.044C24.653 21.044 24.2716 21.108 23.9605 21.2358C23.6494 21.3594 23.4108 21.532 23.2446 21.7536C23.0827 21.9751 23.0017 22.2266 23.0017 22.5078C22.9932 22.7422 23.0422 22.9467 23.1487 23.1214C23.2595 23.2962 23.4108 23.4474 23.6025 23.5753C23.7943 23.6989 24.0159 23.8075 24.2673 23.9013C24.5187 23.9908 24.7872 24.0675 25.0727 24.1314L26.2488 24.4126C26.8199 24.5405 27.344 24.7109 27.8213 24.924C28.2986 25.1371 28.7119 25.3991 29.0613 25.7102C29.4108 26.0213 29.6814 26.3878 29.8731 26.8097C30.0692 27.2315 30.1693 27.7152 30.1736 28.2607C30.1693 29.0618 29.9648 29.7564 29.5599 30.3445C29.1594 30.9283 28.5798 31.3821 27.8213 31.706C27.067 32.0256 26.1572 32.1854 25.0919 32.1854C24.0351 32.1854 23.1146 32.0234 22.3305 31.6996C21.5507 31.3757 20.9413 30.8963 20.5024 30.2614C20.0677 29.6222 19.8398 28.8317 19.8184 27.8899H22.4967C22.5265 28.3288 22.6523 28.6953 22.8738 28.9893C23.0997 29.2791 23.4001 29.4986 23.7751 29.6477C24.1544 29.7926 24.5827 29.8651 25.0599 29.8651C25.5287 29.8651 25.9356 29.7969 26.2808 29.6605C26.6302 29.5241 26.9008 29.3345 27.0926 29.0916C27.2844 28.8487 27.3802 28.5696 27.3802 28.2543C27.3802 27.9602 27.2929 27.7131 27.1182 27.5128C26.9477 27.3125 26.6963 27.142 26.3639 27.0014C26.0358 26.8608 25.6331 26.733 25.1558 26.6179L23.7304 26.2599C22.6267 25.9915 21.7552 25.5717 21.116 25.0007C20.4768 24.4297 20.1594 23.6605 20.1636 22.6932C20.1594 21.9006 20.3703 21.2081 20.7964 20.6158C21.2268 20.0234 21.817 19.5611 22.567 19.2287C23.317 18.8963 24.1693 18.7301 25.1238 18.7301C26.0954 18.7301 26.9434 18.8963 27.6679 19.2287C28.3966 19.5611 28.9633 20.0234 29.3682 20.6158C29.773 21.2081 29.9818 21.8942 29.9946 22.674H27.3419Z" fill="#0C111F"/>
</g>
<defs>
<clipPath id="clip0_305_11">
<rect width="50" height="50" fill="white"/>
</clipPath>
</defs>
</svg>
